<svg width="2178" height="303" viewBox="0 0 2178 303" fill="none" xmlns="http://www.w3.org/2000/svg">
<path d="M621.331 222.745C594.273 218.861 569.378 202.469 554.641 178.828C544.923 163.25 539.677 138.235 541.946 118.279C543.268 106.598 547.98 90.273 552.678 81.0357C559.726 67.2198 577.547 50.1068 591.964 43.3256C610.131 34.7691 622 31.8613 637.017 31.8613C653.5 31.8614 660.656 34.0616 670.707 37.6124C708.925 51.0812 731.297 81.049 733.66 121.936C735.542 154.36 723.515 183.967 701.182 201.895C691.571 209.61 674.672 218.18 664.046 220.73C653.821 223.186 631.689 224.24 621.331 222.745ZM656.438 183.433C669.613 178.788 682.214 166.12 687.5 152.198C691.037 142.88 692.332 124.793 690.197 114.514C686.512 96.7871 675.153 80.9022 661.083 73.7874C653.888 70.1565 648.5 67.8895 637.017 67.8895C626.5 67.8895 621.691 70.3434 616.218 72.8663C602.789 79.0467 592.497 90.7936 587.305 105.864C584.048 115.355 583.621 137.234 586.517 146.765C592.738 167.282 607.208 181.284 626.363 185.356C633.785 186.931 649.35 185.93 656.438 183.433Z" fill="#60FFFC"/>
<path d="M1709.22 222.825C1671.35 216.738 1643.59 192.497 1633.12 156.376C1629.09 142.48 1628.58 120.067 1631.95 104.85C1639.77 69.4356 1669.6 40.8961 1705.5 34.4887C1718.78 32.1127 1744.08 33.3942 1755.05 37.0117C1774.94 43.5525 1791.42 55.3528 1802.58 71.0108C1821.6 97.6814 1825.84 132.708 1813.89 164.759C1804.32 190.468 1778.82 213.294 1751.3 220.796C1742.54 223.186 1718.62 224.334 1709.22 222.825ZM1737.28 188.639C1752.31 186.664 1768.72 174.383 1775.82 159.806C1777.83 155.681 1780.45 147.405 1781.63 141.425C1783.56 131.6 1783.57 129.371 1781.76 118.238C1777.58 92.7157 1763.4 74.7884 1742.27 68.341C1733.82 65.7647 1715.11 65.9249 1705.91 68.6614C1682.58 75.6027 1667.2 99.1364 1667.2 127.943C1667.2 161.181 1686.53 185.209 1716.59 189.347C1720.63 189.908 1725.43 190.161 1727.27 189.934C1729.11 189.707 1733.61 189.12 1737.28 188.639Z" fill="white"/>
<path d="M763.494 128.61V35.8369H787.482H811.483L813.739 40.1752C819.906 52.0556 840.85 98.7359 854.906 131.947C866.733 159.873 870.31 167.175 871.525 165.88C872.166 165.199 877.185 153.839 882.698 140.624C892.789 116.423 922.036 48.2378 925.787 40.1752L927.803 35.8369H952.445H977.073V128.61V221.384H956.396H935.719L935.372 161.662L935.025 101.926L926.575 123.284C921.93 135.018 911.638 160.54 903.709 180.003C895.78 199.465 888.878 216.725 888.371 218.38C887.49 221.29 886.929 221.384 870.404 221.384H853.357L849.607 211.706C847.551 206.38 838.807 184.902 830.171 163.984C821.534 143.067 812.457 120.828 810.001 114.594L805.542 103.248L805.195 162.316L804.848 221.384H784.171H763.494V128.61Z" fill="#60FFFC"/>
<path d="M1014.45 128.61V35.8369L1036.14 35.877L1057.83 35.9036L1070.23 54.2314C1077.06 64.2963 1086.4 77.952 1090.99 84.5596C1095.57 91.1672 1105.67 105.891 1113.43 117.264C1136.07 150.489 1139.05 154.64 1140.18 154.64C1140.78 154.64 1141.26 127.916 1141.26 95.2386V35.8369H1161.95H1182.64V128.61V221.384H1161.5H1140.34L1124.35 198.357C1115.55 185.689 1101.19 164.945 1092.43 152.251C1083.69 139.556 1074.41 126.208 1071.85 122.59C1069.29 118.986 1065.07 113.019 1062.5 109.335C1059.94 105.651 1057.38 102.62 1056.83 102.607C1056.28 102.594 1055.83 129.304 1055.83 161.982V221.384H1035.14H1014.45V128.61Z" fill="#60FFFC"/>
<path d="M1464.3 128.61V35.8369H1508.24C1556.79 35.8369 1562.27 36.5043 1576.83 44.2065C1586.79 49.4659 1596.47 60.0648 1600.18 69.7559C1603.97 79.6473 1605.33 96.0128 1603.14 105.397C1599.35 121.682 1587.79 135.191 1571.86 141.959L1563.08 145.697L1567.94 154.507C1570.61 159.352 1574.76 166.627 1577.15 170.659C1588.48 189.827 1602.34 213.134 1604.71 217.045L1607.34 221.384H1585.96H1564.58L1557.33 209.036C1547.6 192.457 1535.06 170.458 1529.78 160.647C1523.38 148.807 1523.91 149.141 1512.48 149.581L1502.34 149.968L1502.85 185.676L1503.37 221.384H1483.83H1464.3V128.61ZM1553.96 116.837C1569.02 109.335 1571.5 84.88 1558.35 73.3467C1551.85 67.6468 1546.33 66.4188 1523.42 65.5778L1503.12 64.8436L1502.73 92.4754L1502.34 120.094L1525.7 119.68C1545.06 119.333 1549.9 118.852 1553.96 116.837Z" fill="white"/>
<path d="M1299.44 128.61V35.8369H1342.19C1381.04 35.8369 1385.82 36.0772 1394.71 38.5467C1408.08 42.2576 1414.19 45.6081 1422.2 53.6707C1429.35 60.8523 1433.99 69.1819 1436.21 78.833C1439.31 92.2751 1436.7 110.83 1430.1 122.083C1422.76 134.631 1405.21 146.471 1390.86 148.593C1387.57 149.074 1383.67 149.688 1382.21 149.955C1380.74 150.222 1370.07 150.475 1358.51 150.529L1337.49 150.636V186.01V221.384H1318.47H1299.44V128.61ZM1383.26 117.825C1391.62 114.968 1396.93 108.681 1398.88 99.3233C1401.68 85.8277 1396.36 74.6282 1384.23 68.5011C1380.62 66.6724 1375.01 66.0183 1358.54 65.4977L1337.49 64.8436V92.3819V119.934H1357.27C1371.82 119.934 1378.7 119.373 1383.26 117.825Z" fill="white"/>
<path d="M1836.63 219.048C1837.37 217.766 1843.84 207.568 1851.02 196.382C1885.05 143.428 1894.13 128.878 1894.13 127.262C1894.13 126.301 1889.78 118.879 1884.45 110.777C1865.96 82.5977 1856.03 67.1132 1846.46 51.5219L1836.82 35.8372H1857.99H1879.16L1896.18 62.8683C1905.54 77.7388 1914.16 91.5413 1915.34 93.5569C1916.53 95.5726 1917.82 97.2278 1918.22 97.2278C1918.93 97.2412 1922 92.3823 1945.21 54.5254L1956.25 36.5047L1978.04 36.1309L1999.81 35.7705L1997.22 39.4681C1995.79 41.5104 1986.94 55.1928 1977.56 69.8764C1968.17 84.5599 1956.64 102.461 1951.94 109.655C1947.24 116.837 1942.86 124.139 1942.21 125.874C1941.17 128.624 1944.92 134.924 1971.4 174.877L2001.78 220.717L1980.4 221.09C1961.35 221.411 1958.76 221.197 1956.76 219.088C1955.53 217.78 1946.98 204.698 1937.75 190.015C1928.54 175.331 1920.12 162.142 1919.06 160.714C1917.23 158.258 1916.67 158.792 1909.29 170.072C1904.99 176.653 1896.09 190.896 1889.51 201.708L1877.55 221.384H1856.42C1836.69 221.384 1835.39 221.224 1836.63 219.048Z" fill="white"/>
<path d="M2074.33 187.611C2074.33 169.03 2073.81 153.265 2073.17 152.571C2072.55 151.877 2068.85 145.296 2064.98 137.954C2061.11 130.612 2057.52 124.005 2056.99 123.271C2056.47 122.536 2053.64 117.424 2050.69 111.924C2039.47 90.94 2019.22 53.4169 2013.4 42.7913C2011.68 39.6544 2010.26 36.7844 2010.26 36.424C2010.26 36.0636 2019.62 35.9301 2031.06 36.1303L2051.84 36.5041L2057.64 47.8505C2060.83 54.0977 2070.29 72.5589 2078.67 88.8977L2093.92 118.598L2114.7 77.5513L2135.5 36.5041L2156.31 36.1303C2167.75 35.9301 2177.12 36.1437 2177.12 36.5975C2177.12 37.0647 2173.89 43.2318 2169.95 50.32C2159.3 69.4486 2155.98 75.5089 2150.09 86.5617C2142.04 101.672 2134.24 116.116 2131.73 120.601C2130.51 122.803 2125.79 131.587 2121.27 140.103L2113.05 155.614V188.492V221.383H2093.69H2074.33V187.611Z" fill="white"/>
<path d="M1219.33 128.61L1219.3 35.8369H1240.35H1261.4V128.61V221.384H1240.38H1219.35L1219.33 128.61Z" fill="#60FFFC"/>
<path d="M200.711 302.198C199.522 301.009 263.433 177.851 266.091 176.217C266.505 175.958 270.311 178.337 274.531 181.513C283.519 188.267 295.983 194.38 305.55 196.728C315.097 199.065 331.843 198.9 341.69 196.355C376.702 187.305 401.526 153.638 399.271 118.233C398.143 100.432 390.976 84.0068 378.284 70.1158C367.869 58.7071 357.681 52.3771 343.055 48.2191C332.733 45.2712 313.525 45.0126 303.833 47.6916C285.298 52.7908 269.815 63.8788 259.471 79.435C250.39 93.0882 247.101 103.731 246.035 122.887C245.125 139.24 243.749 147.597 240.098 159.089C226.269 202.592 188.351 235.556 143.006 243.479C135.683 244.762 129.694 245.041 118.792 244.617C68.6586 242.673 27.0166 213.422 7.70575 166.577C2.02729 152.8 0 141.029 0 121.853C0 106.855 0.330995 103.504 2.70995 94.1535C12.5154 55.6455 38.5183 25.1536 75.3093 9.03876C78.1227 7.80791 80.9154 6.69086 81.5153 6.56674C85.5182 5.6979 89.0866 4.68425 90.8656 3.89816C92.9653 2.97761 94.5271 2.66732 107.415 0.681416C119.579 -1.19072 150.577 1.07447 153.908 4.08436C154.446 4.57049 156.121 4.97387 157.611 4.97387C159.11 4.97387 160.662 5.29452 161.055 5.69791C161.448 6.09095 162.358 6.49431 163.072 6.60809C167.654 7.2804 189.271 18.627 196.563 24.1916C198.446 25.6294 199.987 27.5222 199.987 28.4014C199.987 29.2805 195.291 39.0446 189.551 50.0912L179.125 70.1778L176.777 68.3471C175.484 67.3438 171.915 64.4684 168.844 61.9653C162.203 56.5454 149.315 50.1843 139.996 47.7123C130.997 45.3333 112.866 45.3229 103.795 47.6916C100.102 48.6535 93.1204 51.4255 88.2798 53.8458C81.205 57.3832 77.5538 60.1655 69.5999 68.0678C61.108 76.5079 59.0394 79.2799 54.9124 87.72C48.2307 101.414 46.5447 108.5 46.5757 122.887C46.6068 137.026 48.4065 144.805 54.2608 156.079C67.8208 182.185 93.7928 198.393 122.061 198.393C135.797 198.393 145.313 196.293 157.063 190.646C174.853 182.113 189.385 165.181 195.395 145.984C197.991 137.688 199.987 124.904 199.987 116.536C199.987 100.515 204.786 83.5413 214.499 65.2027C223.384 48.4156 234.472 35.3624 249.324 24.2124C260.123 16.1136 276.786 7.53899 285.836 5.41862C290.211 4.39464 290.108 4.42567 292.042 3.68096C301.568 -0.00124559 334.108 -0.849409 347.379 2.24323C361.135 5.44964 368.065 7.85963 378.408 13.0416C410.535 29.1461 434.055 59.4622 443.168 96.5118C444.305 101.166 445.464 110.444 445.795 117.715C446.519 133.055 444.833 144.556 439.517 160.599C432.959 180.406 425.263 192.952 410.524 207.898C376.598 242.29 330.333 253.398 284.13 238.235C282.133 237.584 281.213 238.845 274.955 250.792C258.923 281.408 255.086 286.652 242.881 294.606C233.799 300.522 225.007 302.86 211.82 302.86C206.069 302.86 201.073 302.56 200.711 302.198Z" fill="#60FFFC"/>
</svg>
