<svg width="2308" height="391" viewBox="0 0 2308 391" fill="none" xmlns="http://www.w3.org/2000/svg">
<path d="M751.331 266.745C724.273 262.861 699.378 246.469 684.641 222.828C674.923 207.25 669.677 182.235 671.946 162.279C673.268 150.598 677.98 134.273 682.678 125.036C689.726 111.22 707.547 94.1068 721.964 87.3256C740.131 78.7691 752 75.8613 767.017 75.8613C783.5 75.8614 790.656 78.0616 800.707 81.6124C838.925 95.0812 861.297 125.049 863.66 165.936C865.542 198.36 853.515 227.967 831.182 245.895C821.571 253.61 804.672 262.18 794.046 264.73C783.821 267.186 761.689 268.24 751.331 266.745ZM786.438 227.433C799.613 222.788 812.214 210.12 817.5 196.198C821.037 186.88 822.332 168.793 820.197 158.514C816.512 140.787 805.153 124.902 791.083 117.787C783.888 114.157 778.5 111.889 767.017 111.889C756.5 111.889 751.691 114.343 746.218 116.866C732.789 123.047 722.497 134.794 717.305 149.864C714.048 159.355 713.621 181.234 716.517 190.765C722.738 211.282 737.208 225.284 756.363 229.356C763.785 230.931 779.35 229.93 786.438 227.433Z" fill="#60FFFC"/>
<path d="M1839.22 266.825C1801.35 260.738 1773.59 236.497 1763.12 200.376C1759.09 186.48 1758.58 164.067 1761.95 148.85C1769.77 113.436 1799.6 84.8961 1835.5 78.4887C1848.78 76.1127 1874.08 77.3942 1885.05 81.0117C1904.94 87.5525 1921.42 99.3528 1932.58 115.011C1951.6 141.681 1955.84 176.708 1943.89 208.759C1934.32 234.468 1908.82 257.294 1881.3 264.796C1872.54 267.186 1848.62 268.334 1839.22 266.825ZM1867.28 232.639C1882.31 230.664 1898.72 218.383 1905.82 203.806C1907.83 199.681 1910.45 191.405 1911.63 185.425C1913.56 175.6 1913.57 173.371 1911.76 162.238C1907.58 136.716 1893.4 118.788 1872.27 112.341C1863.82 109.765 1845.11 109.925 1835.91 112.661C1812.58 119.603 1797.2 143.136 1797.2 171.943C1797.2 205.181 1816.53 229.209 1846.59 233.347C1850.63 233.908 1855.43 234.161 1857.27 233.934C1859.11 233.707 1863.61 233.12 1867.28 232.639Z" fill="white"/>
<path d="M893.494 172.61V79.8369H917.482H941.483L943.739 84.1752C949.906 96.0556 970.85 142.736 984.906 175.947C996.733 203.873 1000.31 211.175 1001.53 209.88C1002.17 209.199 1007.18 197.839 1012.7 184.624C1022.79 160.423 1052.04 92.2378 1055.79 84.1752L1057.8 79.8369H1082.44H1107.07V172.61V265.384H1086.4H1065.72L1065.37 205.662L1065.02 145.926L1056.58 167.284C1051.93 179.018 1041.64 204.54 1033.71 224.003C1025.78 243.465 1018.88 260.725 1018.37 262.38C1017.49 265.29 1016.93 265.384 1000.4 265.384H983.357L979.607 255.706C977.551 250.38 968.807 228.902 960.171 207.984C951.534 187.067 942.457 164.828 940.001 158.594L935.542 147.248L935.195 206.316L934.848 265.384H914.171H893.494V172.61Z" fill="#60FFFC"/>
<path d="M1144.45 172.61V79.8369L1166.14 79.877L1187.83 79.9036L1200.23 98.2314C1207.06 108.296 1216.4 121.952 1220.99 128.56C1225.57 135.167 1235.67 149.891 1243.43 161.264C1266.07 194.489 1269.05 198.64 1270.18 198.64C1270.78 198.64 1271.26 171.916 1271.26 139.239V79.8369H1291.95H1312.64V172.61V265.384H1291.5H1270.34L1254.35 242.357C1245.55 229.689 1231.19 208.945 1222.43 196.251C1213.69 183.556 1204.41 170.208 1201.85 166.59C1199.29 162.986 1195.07 157.019 1192.5 153.335C1189.94 149.651 1187.38 146.62 1186.83 146.607C1186.28 146.594 1185.83 173.304 1185.83 205.982V265.384H1165.14H1144.45V172.61Z" fill="#60FFFC"/>
<path d="M1594.3 172.61V79.8369H1638.24C1686.79 79.8369 1692.27 80.5043 1706.83 88.2065C1716.79 93.4659 1726.47 104.065 1730.18 113.756C1733.97 123.647 1735.33 140.013 1733.14 149.397C1729.35 165.682 1717.79 179.191 1701.86 185.959L1693.08 189.697L1697.94 198.507C1700.61 203.352 1704.76 210.627 1707.15 214.659C1718.48 233.827 1732.34 257.134 1734.71 261.045L1737.34 265.384H1715.96H1694.58L1687.33 253.036C1677.6 236.457 1665.06 214.458 1659.78 204.647C1653.38 192.807 1653.91 193.141 1642.48 193.581L1632.34 193.968L1632.85 229.676L1633.37 265.384H1613.83H1594.3V172.61ZM1683.96 160.837C1699.02 153.335 1701.5 128.88 1688.35 117.347C1681.85 111.647 1676.33 110.419 1653.42 109.578L1633.12 108.844L1632.73 136.475L1632.34 164.094L1655.7 163.68C1675.06 163.333 1679.9 162.852 1683.96 160.837Z" fill="white"/>
<path d="M1429.44 172.61V79.8369H1472.19C1511.04 79.8369 1515.82 80.0772 1524.71 82.5467C1538.08 86.2576 1544.19 89.6081 1552.2 97.6707C1559.35 104.852 1563.99 113.182 1566.21 122.833C1569.31 136.275 1566.7 154.83 1560.1 166.083C1552.76 178.631 1535.21 190.471 1520.86 192.593C1517.57 193.074 1513.67 193.688 1512.21 193.955C1510.74 194.222 1500.07 194.475 1488.51 194.529L1467.49 194.636V230.01V265.384H1448.47H1429.44V172.61ZM1513.26 161.825C1521.62 158.968 1526.93 152.681 1528.88 143.323C1531.68 129.828 1526.36 118.628 1514.23 112.501C1510.62 110.672 1505.01 110.018 1488.54 109.498L1467.49 108.844V136.382V163.934H1487.27C1501.82 163.934 1508.7 163.373 1513.26 161.825Z" fill="white"/>
<path d="M1966.63 263.047C1967.37 261.766 1973.84 251.568 1981.02 240.381C2015.05 187.427 2024.13 172.877 2024.13 171.262C2024.13 170.301 2019.78 162.879 2014.45 154.776C1995.96 126.597 1986.03 111.113 1976.46 95.5215L1966.82 79.8367H1987.99H2009.16L2026.18 106.868C2035.54 121.738 2044.16 135.541 2045.34 137.556C2046.53 139.572 2047.82 141.227 2048.22 141.227C2048.93 141.241 2052 136.382 2075.21 98.5249L2086.25 80.5042L2108.04 80.1304L2129.81 79.77L2127.22 83.4676C2125.79 85.5099 2116.94 99.1923 2107.56 113.876C2098.17 128.559 2086.64 146.46 2081.94 153.655C2077.24 160.837 2072.86 168.138 2072.21 169.874C2071.17 172.623 2074.92 178.924 2101.4 218.877L2131.78 264.716L2110.4 265.09C2091.35 265.41 2088.76 265.197 2086.76 263.088C2085.53 261.779 2076.98 248.698 2067.75 234.014C2058.54 219.331 2050.12 206.142 2049.06 204.714C2047.23 202.258 2046.67 202.791 2039.29 214.071C2034.99 220.652 2026.09 234.895 2019.51 245.708L2007.55 265.383H1986.42C1966.69 265.383 1965.39 265.223 1966.63 263.047Z" fill="white"/>
<path d="M2204.33 231.611C2204.33 213.03 2203.81 197.265 2203.17 196.571C2202.55 195.877 2198.85 189.296 2194.98 181.954C2191.11 174.612 2187.52 168.005 2186.99 167.271C2186.47 166.536 2183.64 161.424 2180.69 155.924C2169.47 134.94 2149.22 97.4169 2143.4 86.7913C2141.68 83.6544 2140.26 80.7844 2140.26 80.424C2140.26 80.0636 2149.62 79.9301 2161.06 80.1303L2181.84 80.5041L2187.64 91.8505C2190.83 98.0977 2200.29 116.559 2208.67 132.898L2223.92 162.598L2244.7 121.551L2265.5 80.5041L2286.31 80.1303C2297.75 79.9301 2307.12 80.1437 2307.12 80.5975C2307.12 81.0647 2303.89 87.2318 2299.95 94.32C2289.3 113.449 2285.98 119.509 2280.09 130.562C2272.04 145.672 2264.24 160.116 2261.73 164.601C2260.51 166.803 2255.79 175.587 2251.27 184.103L2243.05 199.614V232.492V265.383H2223.69H2204.33V231.611Z" fill="white"/>
<path d="M1349.33 172.61L1349.3 79.8369H1370.35H1391.4V172.61V265.384H1370.38H1349.35L1349.33 172.61Z" fill="#60FFFC"/>
<path d="M259.031 390.007C257.496 388.472 339.978 229.529 343.408 227.42C343.942 227.086 348.855 230.156 354.301 234.254C365.901 242.971 381.986 250.86 394.333 253.89C406.654 256.907 428.266 256.694 440.974 253.41C486.159 241.73 518.196 198.28 515.286 152.587C513.831 129.614 504.58 108.416 488.201 90.4891C474.759 75.7655 461.611 67.5961 442.736 62.23C429.414 58.4256 404.625 58.0919 392.118 61.5492C368.197 68.1301 348.214 82.4398 334.865 102.516C323.145 120.137 318.9 133.872 317.525 158.594C316.35 179.698 314.575 190.484 309.863 205.314C292.016 261.459 243.08 304.001 184.559 314.226C175.108 315.882 167.379 316.242 153.31 315.695C88.6086 313.185 34.8668 275.435 9.94479 214.979C2.61636 197.198 0 182.008 0 157.259C0 137.904 0.427172 133.579 3.49737 121.511C16.1519 71.8143 49.7105 32.4624 97.1918 11.6651C100.823 10.0766 104.427 8.635 105.201 8.47482C110.367 7.35353 114.972 6.04533 117.268 5.03084C119.978 3.8428 121.994 3.44236 138.626 0.879414C154.324 -1.5367 194.33 1.38668 198.628 5.27114C199.323 5.89853 201.485 6.41911 203.407 6.41911C205.343 6.41911 207.345 6.83293 207.852 7.35353C208.36 7.86078 209.534 8.38135 210.455 8.52818C216.369 9.39585 244.268 24.0394 253.678 31.2209C256.108 33.0764 258.097 35.5192 258.097 36.6539C258.097 37.7885 252.037 50.3897 244.628 64.6461L231.173 90.5692L228.142 88.2065C226.474 86.9117 221.869 83.2008 217.904 79.9704C209.334 72.9757 192.702 64.7662 180.674 61.5759C169.061 58.5057 145.661 58.4923 133.954 61.5492C129.189 62.7906 120.178 66.368 113.931 69.4916C104.801 74.0569 100.088 77.6477 89.8233 87.8461C78.864 98.7386 76.1943 102.316 70.8682 113.209C62.2449 130.882 60.0691 140.026 60.1091 158.594C60.1492 176.842 62.4719 186.88 70.0272 201.43C87.5273 235.122 121.046 256.039 157.528 256.039C175.255 256.039 187.536 253.33 202.7 246.041C225.66 235.029 244.414 213.177 252.17 188.402C255.521 177.696 258.097 161.197 258.097 150.398C258.097 129.721 264.291 107.816 276.825 84.1485C288.292 62.4836 302.601 45.6376 321.77 31.2477C335.706 20.7957 357.211 9.72957 368.891 6.99309C374.537 5.67157 374.404 5.71163 376.9 4.75052C389.194 -0.00160752 431.189 -1.09622 448.316 2.89504C466.069 7.03313 475.013 10.1434 488.362 16.8311C529.823 37.615 560.178 76.74 571.938 124.555C573.406 130.562 574.901 142.536 575.328 151.92C576.263 171.716 574.087 186.56 567.226 207.263C558.763 232.826 548.831 249.018 529.809 268.307C486.026 312.691 426.317 327.028 366.688 307.459C364.112 306.618 362.924 308.246 354.848 323.664C334.158 363.176 329.205 369.944 313.454 380.209C301.734 387.844 290.387 390.861 273.368 390.861C265.946 390.861 259.498 390.474 259.031 390.007Z" fill="#60FFFC"/>
</svg>
