<svg width="2463" height="392" viewBox="0 0 2463 392" fill="none" xmlns="http://www.w3.org/2000/svg">
<path d="M757.744 273.488C728.864 269.142 700.81 251.328 686.037 227.942C681.317 220.488 676.117 208.102 672.944 196.822C669.864 185.835 670.557 157.808 674.224 144.822C684.57 108.248 716.077 80.715 755.864 73.4617C766.477 71.515 788.037 71.515 800.41 73.4483C844.89 80.395 876.757 110.222 885.917 153.488C894.264 192.968 876.464 235.195 842.037 257.595C831.744 264.288 817.357 270.128 804.797 272.715C794.064 274.915 769.904 275.315 757.744 273.488ZM801.584 230.075C830.944 218.302 846.304 183.502 835.73 152.782C826.517 125.982 804.184 110.942 775.877 112.462C759.65 113.328 748.584 118.048 737.704 128.715C712.464 153.475 712.037 190.488 736.69 216.328C744.384 224.395 756.53 231.315 766.837 233.515C776.65 235.595 791.49 234.128 801.584 230.075Z" fill="#60FFFC"/>
<path d="M1951.08 271.462C1912.81 263.048 1883.74 235.048 1874.24 197.422C1871.78 187.715 1871.49 183.795 1872.16 168.835C1873.01 149.355 1875.48 139.742 1883.28 125.488C1893.57 106.662 1906.96 94.0351 1927.04 84.2217C1944.22 75.8084 1955.33 73.4084 1977.05 73.3951C1997.88 73.3817 2007.98 75.5684 2024.41 83.6618C2055.88 99.1551 2075.16 126.462 2079.89 162.208C2083.81 191.822 2071.17 225.582 2048.2 246.862C2034.92 259.155 2018.21 267.888 2001.08 271.488C1989.44 273.942 1962.26 273.928 1951.08 271.462ZM2001.4 243.755C2051.92 225.422 2067.02 159.195 2029.42 120.875C2014.7 105.888 2001.92 100.182 1980.64 99.1417C1956.21 97.9551 1938.53 104.342 1922.61 120.115C1902.89 139.648 1895.76 169.995 1904.58 196.822C1913.04 222.502 1935.73 241.875 1963.74 247.328C1971.85 248.902 1992.65 246.928 2001.4 243.755Z" fill="white"/>
<path d="M922.744 271.368C921.437 270.768 921.077 249.888 921.077 173.542V76.475L940.077 75.7017C970.197 74.4883 970.517 74.5417 973.851 80.835C975.411 83.755 981.81 95.755 988.064 107.488C1002.76 134.995 1019.86 167.542 1026.09 179.835C1028.8 185.155 1031.54 189.328 1032.21 189.115C1032.88 188.888 1046.38 163.128 1062.24 131.875L1091.05 75.0483L1111.06 75.5283C1122.08 75.7817 1133.33 76.035 1136.09 76.075L1141.09 76.155L1140.76 173.822L1140.41 271.488H1118.41H1096.41L1095.74 210.822L1095.08 150.155L1083.65 173.488C1077.37 186.315 1066.3 208.995 1059.08 223.862L1045.93 250.902L1031.17 250.528L1016.41 250.155L1010.41 238.062C1007.1 231.422 996.01 208.982 985.744 188.208L967.077 150.448L966.73 210.635L966.384 270.822H959.277C955.357 270.822 945.917 271.115 938.29 271.475C930.65 271.835 923.664 271.795 922.744 271.368Z" fill="#60FFFC"/>
<path d="M1183.74 174.275V76.3818L1192.74 75.8617C1197.69 75.5684 1207.41 75.3684 1214.33 75.4084L1226.92 75.4884L1232.65 82.8217C1239.45 91.5151 1256.89 114.115 1274.17 136.635C1281.01 145.542 1288.5 155.288 1290.84 158.302C1293.17 161.315 1300.18 170.422 1306.41 178.555C1312.64 186.688 1318.2 193.368 1318.74 193.408C1319.29 193.462 1319.74 167.088 1319.74 134.822V76.1551H1343.08H1366.41V173.488C1366.41 265.262 1366.28 270.822 1364.08 270.915C1349.88 271.515 1323.58 271.515 1322.78 270.915C1321.69 270.115 1320.3 268.355 1302.29 244.888C1296.12 236.862 1285.5 223.062 1278.69 214.222C1271.88 205.382 1263.81 194.848 1260.76 190.822C1257.72 186.795 1249.8 176.635 1243.16 168.262L1231.08 153.022L1230.73 212.595L1230.38 272.155H1207.06H1183.74V174.275Z" fill="#60FFFC"/>
<path d="M1696.08 271.168L1690.41 270.675V173.408V76.1549L1718.08 75.9149C1785.53 75.3415 1792.26 75.9015 1808.46 83.5682C1831.53 94.4882 1843.05 113.448 1842.88 140.235C1842.72 166.728 1830.68 187.062 1809.26 197.022C1804.77 199.115 1801.1 201.315 1801.09 201.928C1801.08 203.102 1816.05 225.302 1834.66 251.688C1840.94 260.595 1846.49 268.555 1847 269.355C1847.64 270.395 1843.04 270.822 1831.34 270.822H1814.77L1798.33 246.488C1789.28 233.102 1779.45 218.448 1776.48 213.915L1771.08 205.662L1745.41 205.582L1719.74 205.488V238.155C1719.74 263.355 1719.36 270.835 1718.08 270.902C1706.26 271.515 1700.82 271.582 1696.08 271.168ZM1779.84 180.008C1795.42 176.662 1806.78 168.262 1812.05 156.155C1815.73 147.702 1815.78 132.222 1812.14 124.155C1808.48 116.008 1800.77 108.488 1791.84 104.368C1784.62 101.035 1783.46 100.915 1752.08 100.422L1719.74 99.9149V140.701V181.488H1746.34C1760.97 181.488 1776.05 180.822 1779.84 180.008Z" fill="white"/>
<path d="M1512.08 271.102L1501.08 270.715V173.435V76.1552L1510.74 76.1286C1516.06 76.1153 1537.52 75.9952 1558.41 75.8486C1600.98 75.5686 1605.24 76.1686 1623.28 84.9686C1646.76 96.4086 1658.61 121.222 1654.53 150.422C1651.44 172.489 1640.73 187.982 1622.32 197.035C1606.72 204.715 1599.93 205.742 1563.74 205.955L1531.08 206.155L1530.72 238.489C1530.52 256.275 1529.92 270.902 1529.38 270.995C1526.88 271.435 1522.22 271.462 1512.08 271.102ZM1595.08 180.035C1609.92 176.035 1618.33 169.489 1623.28 158.089C1626.36 151.009 1626.4 129.529 1623.34 122.689C1620.32 115.875 1612.85 108.889 1604.01 104.582C1596.42 100.875 1596.36 100.862 1563.32 100.395L1530.21 99.9153L1530.85 140.369C1531.2 162.622 1531.54 180.969 1531.61 181.155C1532.05 182.262 1590.65 181.222 1595.08 180.035Z" fill="white"/>
<path d="M2089.44 271.248C2088.38 270.835 2090.49 266.955 2095.34 260.382C2099.49 254.755 2109.22 241.515 2116.98 230.955C2124.73 220.395 2135.58 205.702 2141.09 198.288C2146.6 190.888 2153.29 181.822 2155.96 178.155L2160.81 171.488L2146.29 151.488C2098.81 86.0617 2092.73 77.195 2094.57 75.995C2095.58 75.3417 2102.89 74.9017 2110.82 75.0217L2125.24 75.235L2134.53 88.0217C2139.64 95.0617 2151.37 111.475 2160.6 124.502C2169.82 137.528 2177.8 148.448 2178.33 148.768C2178.85 149.088 2186.1 139.942 2194.44 128.422C2234.78 72.675 2232.65 75.3417 2236.69 75.5817C2238.73 75.715 2246.32 75.8884 2253.52 75.9817L2266.64 76.155L2263.84 79.8217C2262.29 81.835 2254.6 92.3817 2246.72 103.248C2230.88 125.128 2224.04 134.488 2208.74 155.235C2203.06 162.942 2198.41 169.928 2198.41 170.768C2198.41 171.608 2202.8 178.102 2208.16 185.222C2213.52 192.328 2222.22 204.155 2227.52 211.488C2232.8 218.822 2238.52 226.622 2240.24 228.822C2247.21 237.782 2271.74 270.848 2271.74 271.288C2271.74 271.928 2235.72 271.288 2235.25 270.648C2234.06 268.995 2214.94 242.488 2207.4 231.995C2184.93 200.808 2179.53 193.488 2179.05 193.488C2178.77 193.488 2175.69 197.542 2172.2 202.488C2168.7 207.435 2159.82 219.635 2152.46 229.582C2145.1 239.542 2135.34 252.888 2130.77 259.248L2122.48 270.822L2109.44 270.915C2102.28 270.982 2095.21 271.208 2093.74 271.448C2092.28 271.688 2090.34 271.595 2089.44 271.248Z" fill="white"/>
<path d="M2359.73 271.048C2358.9 270.768 2358.41 257.915 2358.41 236.555V202.501L2341.09 173.661C2331.57 157.795 2316.9 133.715 2308.5 120.155C2285.17 82.4614 2282.13 77.3281 2282.72 76.7281C2283.69 75.7681 2306.73 74.8481 2309.94 75.6614C2312.12 76.2081 2316.25 81.5948 2323.94 93.9548C2329.94 103.595 2337 114.875 2339.62 119.021C2342.26 123.168 2350.7 136.821 2358.4 149.355C2366.09 161.901 2372.69 172.141 2373.06 172.141C2373.44 172.128 2377.89 165.381 2382.94 157.141C2388.01 148.901 2394.3 138.768 2396.94 134.621C2399.58 130.488 2408.94 115.288 2417.74 100.848L2433.74 74.5947L2447.74 75.4881C2455.45 75.9814 2461.94 76.5814 2462.18 76.8214C2462.42 77.0614 2458.29 84.3681 2452.98 93.0481C2447.69 101.715 2441.42 112.128 2439.08 116.155C2436.72 120.181 2424.21 141.021 2411.28 162.461L2387.74 201.435V236.128V270.821L2384.08 270.901C2382.06 270.941 2376.05 271.088 2370.73 271.235C2365.41 271.368 2360.46 271.288 2359.73 271.048Z" fill="white"/>
<path d="M1420.08 271.128L1407.74 270.715V173.435V76.1548L1412.41 76.0614C1414.97 76.0214 1420.08 75.9814 1423.74 75.9814C1427.41 75.9814 1436.12 76.0214 1443.08 76.0614L1455.74 76.1548V174.101V272.048L1444.08 271.781C1437.66 271.648 1426.86 271.341 1420.08 271.128Z" fill="#60FFFC"/>
<path d="M259.031 390.868C257.496 389.333 339.978 230.39 343.408 228.281C343.942 227.948 348.855 231.018 354.301 235.116C365.901 243.832 381.986 251.722 394.333 254.752C406.654 257.769 428.266 257.555 440.974 254.271C486.159 242.591 518.196 199.141 515.286 153.449C513.831 130.475 504.58 109.278 488.201 91.3505C474.759 76.6269 461.611 68.4575 442.736 63.0913C429.414 59.2869 404.625 58.9532 392.118 62.4105C368.197 68.9914 348.214 83.3012 334.865 103.378C323.145 120.998 318.9 134.734 317.525 159.455C316.35 180.56 314.575 191.345 309.863 206.176C292.016 262.32 243.08 304.863 184.559 315.088C175.108 316.743 167.379 317.103 153.31 316.556C88.6086 314.047 34.8668 276.296 9.94479 215.84C2.61636 198.06 0 182.869 0 158.121C0 138.765 0.427172 134.44 3.49737 122.373C16.1519 72.6756 49.7105 33.3237 97.1918 12.5265C100.823 10.938 104.427 9.49633 105.201 9.33615C110.367 8.21486 114.972 6.90666 117.268 5.89216C119.978 4.70413 121.994 4.30369 138.626 1.74074C154.324 -0.67537 194.33 2.248 198.628 6.13247C199.323 6.75986 201.485 7.28044 203.407 7.28044C205.343 7.28044 207.345 7.69426 207.852 8.21486C208.36 8.72211 209.534 9.24268 210.455 9.38951C216.369 10.2572 244.268 24.9007 253.678 32.0823C256.108 33.9377 258.097 36.3806 258.097 37.5152C258.097 38.6498 252.037 51.251 244.628 65.5074L231.173 91.4305L228.142 89.0678C226.474 87.773 221.869 84.0621 217.904 80.8317C209.334 73.837 192.702 65.6275 180.674 62.4372C169.061 59.367 145.661 59.3536 133.954 62.4105C129.189 63.6519 120.178 67.2294 113.931 70.353C104.801 74.9182 100.088 78.509 89.8233 88.7074C78.864 99.5999 76.1943 103.177 70.8682 114.07C62.2449 131.744 60.0691 140.887 60.1091 159.455C60.1492 177.703 62.4719 187.741 70.0272 202.291C87.5273 235.983 121.046 256.901 157.528 256.901C175.255 256.901 187.536 254.191 202.7 246.903C225.66 235.89 244.414 214.038 252.17 189.263C255.521 178.557 258.097 162.058 258.097 151.259C258.097 130.582 264.291 108.677 276.825 85.0098C288.292 63.3449 302.601 46.4989 321.77 32.109C335.706 21.657 357.211 10.5909 368.891 7.85442C374.537 6.5329 374.404 6.57296 376.9 5.61185C389.194 0.859721 431.189 -0.234891 448.316 3.75637C466.069 7.89446 475.013 11.0047 488.362 17.6924C529.823 38.4763 560.178 77.6013 571.938 125.416C573.406 131.423 574.901 143.397 575.328 152.781C576.263 172.577 574.087 187.421 567.226 208.125C558.763 233.688 548.831 249.879 529.809 269.168C486.026 313.553 426.317 327.889 366.688 308.32C364.112 307.479 362.924 309.107 354.848 324.525C334.158 364.037 329.205 370.805 313.454 381.07C301.734 388.706 290.387 391.723 273.368 391.723C265.946 391.723 259.498 391.335 259.031 390.868Z" fill="#60FFFC"/>
</svg>
